# xmcd CD database file
#
# Track frame offsets:
#	150
#	8665
#	19760
#	33025
#	44182
#	54197
#	73832
#	87460
#	100780
#	112842
#	133407
#	147405
#	164462
#	188722
#
# Disc length: 2698 seconds
#
# Revision: 0
# Processed by: cddbd v1.5.1PL0 Copyright (c) Steve Scherf et al.
# Submitted via: CDex 1.50
#
DISCID=bd0a880e
DTITLE=Grupa Bluesowa Stodola - Bluselka
DYEAR=1971
DGENRE=Blues
TTITLE0=Everybody do Betlehem Blues
TTITLE1=Etylina Blues
TTITLE2=Hotel komplet blues
TTITLE3=Blues o kamieniu probierczym
TTITLE4=Koleda blues
TTITLE5=Nie ma dziury w niebie
TTITLE6=Robaczywy blues
TTITLE7=Komenda blues
TTITLE8=Na ogol blues
TTITLE9=Per pedes blues
TTITLE10=Rhythm and blues
TTITLE11=Samochodowy psalm
TTITLE12=Zloto stu slonc
TTITLE13=Weekend w dolinie Jozafata
EXTD=YEAR: 1971
EXTT0=
EXTT1=
EXTT2=
EXTT3=
EXTT4=
EXTT5=
EXTT6=
EXTT7=
EXTT8=
EXTT9=
EXTT10=
EXTT11=
EXTT12=
EXTT13=
PLAYORDER=
